<svg width="409" height="331" viewBox="0 0 409 331" fill="none" xmlns="http://www.w3.org/2000/svg">
<path d="M330.869 289.012C312.145 301.079 230.491 320.409 210.93 320.106C211.176 319.867 211.418 319.685 211.634 319.551C207.682 320.577 187.251 322.936 111.208 309.292C25.7669 293.962 22.2651 178.846 31.7171 122.697C39.7884 89.1824 81.0972 19.6596 189.996 9.81407C326.119 -2.49289 367.038 81.5546 380.255 158.994C393.471 236.433 356.833 272.278 330.869 289.012Z" fill="#FFFCDE"/>
<path d="M210.93 320.106C230.491 320.409 312.145 301.079 330.869 289.012C356.833 272.278 393.471 236.433 380.255 158.994C367.038 81.5546 326.119 -2.49289 189.996 9.81407C81.0972 19.6596 39.7884 89.1824 31.7171 122.697C22.2651 178.846 25.7669 293.962 111.208 309.292C218.009 328.454 215.112 316.052 210.93 320.106Z" stroke="black" stroke-width="10.2967"/>
<path d="M174.042 182.431C178.486 214.63 153.409 229.138 140.315 232.368C122.812 232.097 97.0737 231.698 95.6211 192.543C94.1685 153.389 122.11 144.554 130.394 141.593C138.678 138.632 168.487 142.183 174.042 182.431Z" fill="black"/>
<path d="M118.048 200.241C112.283 200.151 104.816 212.393 102.318 218.533C106.107 220.676 107.371 224.703 115.558 228.006C123.745 231.31 133.078 231.99 139.174 232.491C151.516 233.507 163.061 219.474 167.291 212.331C163.3 204.031 154.13 196.413 154.13 197.71C154.13 206.201 154.13 210.829 135.375 211.837C121.286 212.594 114.478 205.68 118.048 200.241Z" fill="#EF6501"/>
<path d="M174.042 182.431C178.486 214.63 154.666 229.586 140.22 231.422C125.805 232.452 97.0737 231.698 95.6211 192.543C94.1685 153.389 122.11 144.554 130.394 141.593C138.678 138.632 168.487 142.183 174.042 182.431Z" stroke="black" stroke-width="4.11867"/>
<path d="M131.615 122.186C114.332 121.095 100.812 138.529 96.2119 147.382C100.546 155.688 110.021 173.341 113.251 177.511C117.29 182.722 140.172 177.783 146.397 174.79C152.623 171.797 169.373 144.397 167.378 140.247C165.383 136.097 153.22 123.551 131.615 122.186Z" fill="white" stroke="white" stroke-width="2.05934"/>
<path d="M202 268.49C195.41 269.314 192.39 259.223 191.703 254.075L197.881 248.926L203.029 241.719L209.207 249.956L213.326 254.075C213.326 258.193 210.237 267.46 202 268.49Z" fill="#FF2121" stroke="black" stroke-width="4.11867" stroke-linecap="round"/>
<path d="M127.494 122.207C103.583 123.484 93.8438 145.027 91.963 155.639C92.1705 142.255 100.005 115.19 129.681 114.002C159.357 112.815 172.592 135.95 175.5 147.666L173.441 147.634C172.475 143.5 157.383 120.61 127.494 122.207Z" fill="black"/>
<path d="M86.5654 124.025C85.703 123.283 84.4028 123.381 83.6613 124.244C82.9197 125.106 83.0176 126.406 83.8799 127.148L86.5654 124.025ZM98.7603 134.512L86.5654 124.025L83.8799 127.148L96.0749 137.635L98.7603 134.512Z" fill="black"/>
<path d="M97.204 121.677C96.3043 120.982 95.0109 121.147 94.3152 122.047C93.6195 122.947 93.7849 124.24 94.6846 124.936L97.204 121.677ZM105.44 128.046L97.204 121.677L94.6846 124.936L102.921 131.304L105.44 128.046Z" fill="black"/>
<path d="M202.91 239.658C207.207 250.366 219.605 265.456 234.826 240.153" stroke="black" stroke-width="4.11867" stroke-linecap="round"/>
<path d="M202.909 239.658C197.58 251.246 183.737 267.371 170.993 239.163" stroke="black" stroke-width="4.11867" stroke-linecap="round"/>
<circle cx="202.119" cy="224.199" r="2.05934" transform="rotate(0.888109 202.119 224.199)" fill="black"/>
<path d="M210.962 52.361C202.802 47.2915 205.929 22.7622 208.512 11.1313C244.932 8.94977 325.141 20.7657 354.62 85.4817C391.468 166.377 395.466 240.584 346.519 275.868C330.22 286.599 293.926 307.182 279.152 303.658C280.245 299.555 279.958 291.518 270.062 292.189C260.165 292.859 259.942 280.704 261.067 274.543C264.911 270.14 271.386 259.874 266.534 254.032C260.468 246.729 247.938 257.863 241.825 253.649C236.934 250.278 239.979 239.89 242.112 235.117C228.776 231.821 224.722 227.639 225.895 218.389C227.068 209.139 215.839 202.786 208.776 193.409C203.125 185.907 209.475 170.421 213.357 163.616C217.602 155.443 206.405 147.031 202.431 137.701C198.456 128.372 206.852 118.204 214.186 110.079C220.054 103.58 211.933 100.433 207.139 99.6722C214.442 93.6066 210.356 91.4837 200.188 83.0877C190.02 74.6918 201.425 69.7196 210.723 67.8042C220.021 65.8887 221.162 58.6978 210.962 52.361Z" fill="#D9D9D9" fill-opacity="0.6" stroke="black" stroke-width="4.11867"/>
<rect x="234.132" y="124.286" width="96.7888" height="94.7295" rx="13.3857" transform="rotate(-0.907802 234.132 124.286)" fill="black" stroke="black" stroke-width="6.17801"/>
<circle cx="314.681" cy="137.382" r="4.11867" transform="rotate(0.888109 314.681 137.382)" fill="white"/>
<circle cx="283.254" cy="171.908" r="23.6824" transform="rotate(0.888109 283.254 171.908)" fill="#E42121" stroke="white" stroke-width="6.17801"/>
<path d="M286.133 52.4964C289.706 65.5958 302.205 91.8776 323.62 92.2096" stroke="black" stroke-width="4.11867"/>
<path d="M336.892 232.467C325.883 234.013 303.362 243.069 301.345 266.929" stroke="black" stroke-width="4.11867"/>
<path d="M281.274 33.8845C266.627 22.1238 232.069 19.3912 216.62 19.495C217.924 23.9776 223.594 34.6381 235.846 41.4187C248.099 48.1993 271.237 39.2212 281.274 33.8845Z" fill="black" stroke="black" stroke-width="4.11867"/>
<path d="M390.477 230.208C403.098 213.241 419.539 175.668 384.34 161.117L390.477 230.208Z" fill="#FFFCDE" stroke="black" stroke-width="6.17801"/>
<path d="M22.2995 175.482C8.05019 191.107 -12.0551 226.853 21.5181 244.841L22.2995 175.482Z" fill="#FFFCDE" stroke="black" stroke-width="6.17801"/>
<path d="M149.484 98.7782C143.654 102.807 101.67 105.246 81.406 105.961C56.5647 167.251 65.3573 277.641 72.8588 325.174C58.2084 318.082 27.0241 292.54 19.4899 247.113C11.9558 201.685 21.5622 135.584 30.8946 109.297C44.0719 81.3581 62.4076 61.2557 78.1974 47.2133C123.65 6.79083 182.513 3.5196 201.416 3.81258C227.154 4.21151 301.186 11.538 344.706 60.6129C388.226 109.688 390.653 218.883 388.131 248.708C386.113 272.568 357.793 301.444 343.884 312.899C354.63 204.32 332.74 123.931 320.452 97.3093L312.215 97.1817C298.112 103.554 262.369 101.901 246.261 100.278L246.261 67.7047L238.024 100.151C230.51 106.625 190.672 100.151 158.75 98.9218L153.604 67.7047L149.484 98.7782Z" fill="url(#paint0_linear_20_2427)"/>
<path d="M81.406 105.961C101.67 105.246 143.654 102.807 149.484 98.7782L153.604 67.7047L158.75 98.9218C190.672 100.151 230.51 106.625 238.024 100.151L246.261 67.7047L246.261 100.278C262.369 101.901 298.112 103.554 312.215 97.1817L320.452 97.3093C332.74 123.931 354.63 204.32 343.884 312.899C357.793 301.444 386.113 272.568 388.131 248.708C390.653 218.883 388.226 109.688 344.706 60.6129C301.186 11.538 227.154 4.21151 201.416 3.81258C182.513 3.5196 123.65 6.79083 78.1974 47.2133C62.4076 61.2557 44.0719 81.358 30.8946 109.297C21.5622 135.584 11.9558 201.685 19.4899 247.113C27.0241 292.54 58.2084 318.082 72.8588 325.174C65.3573 277.641 56.5647 167.251 81.406 105.961ZM81.406 105.961C84.6169 98.1159 92.9017 81.8363 100.353 79.4803" stroke="black" stroke-width="6.17801"/>
<path d="M281.283 218.037C271.673 222.315 252.453 232.74 252.453 240.209C252.453 247.677 252.453 251.878 252.453 253.045" stroke="black" stroke-width="6.17801"/>
<path d="M308.055 123.307V97.5651" stroke="black" stroke-width="6.17801"/>
<path d="M209.208 310.706H215.386" stroke="#FFFCDE" stroke-width="8.23735"/>
<path d="M372.923 268.49C376.698 260.939 383.425 242.748 380.131 230.392" stroke="#FFFCDE" stroke-width="4.11867" stroke-linecap="round"/>
<circle cx="369.834" cy="273.639" r="2.05934" fill="white"/>
<path d="M254.513 24.4584C273.047 27.2042 315.263 39.9035 335.857 68.7342" stroke="#FFFCDE" stroke-width="4.11867" stroke-linecap="round"/>
<path d="M77.4083 280.846L74.3193 241.719C79.2617 271.373 107.269 292.516 120.654 299.38C106.651 303.499 85.9889 288.74 77.4083 280.846Z" fill="black" fill-opacity="0.1"/>
<path d="M338.945 270.549C337.297 271.373 316.978 283.249 307.025 289.083C322.676 278.375 334.826 255.104 338.945 244.808C339.631 253.045 340.592 269.726 338.945 270.549Z" fill="black" fill-opacity="0.2"/>
<path d="M208.178 128.456C207.354 124.337 216.759 114.383 221.564 109.921L211.267 137.723C210.581 136.35 209.002 132.574 208.178 128.456Z" fill="black" fill-opacity="0.3"/>
<path d="M116.536 36.8148C109.443 39.152 92.9226 46.9546 83.5869 59.4675" stroke="white" stroke-width="6.17801" stroke-linecap="round"/>
<path d="M230.829 93.4466L234.948 76.9719" stroke="white" stroke-width="4.11867" stroke-linecap="round"/>
<path d="M203.072 248.926L203.044 255.104" stroke="black" stroke-width="2.05934" stroke-linecap="round"/>
<path d="M214.356 244.808C215.386 246.867 222.594 249.956 224.653 244.808C222.937 245.837 219.505 247.897 214.356 244.808Z" stroke="black" stroke-opacity="0.2" stroke-width="2.05934" stroke-linecap="round"/>
<defs>
<linearGradient id="paint0_linear_20_2427" x1="206.138" y1="3.88578" x2="201.127" y2="327.163" gradientUnits="userSpaceOnUse">
<stop offset="0.348958" stop-color="#E22D77"/>
<stop offset="1" stop-color="#F97F28"/>
</linearGradient>
</defs>
</svg>
